<svg id="Layer_1" data-name="Layer 1" xmlns="http://www.w3.org/2000/svg" viewBox="0 0 68.135 60">
  <defs>
    <style>
      .cls-1 {
        fill: #010101;
      }

      .cls-2 {
        fill: #f26522;
      }

      .cls-3 {
        fill: #e51b24;
      }

      .cls-4 {
        fill: #f99f1c;
      }
    </style>
  </defs>
  <title>master-card-logo</title>
  <g>
    <path class="cls-1" d="M12.4,52.7V49.194a2.08,2.08,0,0,0-1.929-2.221h0a2,2,0,0,0-.268,0,2.17,2.17,0,0,0-1.965,1,2.053,2.053,0,0,0-1.848-1,1.851,1.851,0,0,0-1.637.83v-.69H3.53V52.7H4.759V49.6a1.306,1.306,0,0,1,1.112-1.474h0a1.347,1.347,0,0,1,.254-.011c.807,0,1.216.527,1.216,1.474V52.7H8.571V49.6A1.32,1.32,0,0,1,9.71,48.126h0a1.462,1.462,0,0,1,.229-.009c.83,0,1.228.527,1.228,1.474V52.7Zm18.176-5.591H28.583v-1.7H27.355v1.7H26.22v1.111h1.135v2.549c0,1.3.5,2.07,1.941,2.07a2.848,2.848,0,0,0,1.52-.433l-.35-1.041a2.222,2.222,0,0,1-1.076.316c-.609,0-.807-.374-.807-.935V48.223h1.988Zm10.375-.14a1.652,1.652,0,0,0-1.474.819v-.679h-1.2V52.7h1.216V49.568c0-.924.4-1.439,1.193-1.439a2.041,2.041,0,0,1,.761.14l.374-1.145a2.63,2.63,0,0,0-.865-.153m-15.685.585a4.17,4.17,0,0,0-2.28-.585c-1.415,0-2.327.679-2.327,1.79,0,.912.677,1.474,1.928,1.649l.575.082c.665.094.981.268.981.584,0,.433-.444.679-1.274.679A2.97,2.97,0,0,1,21,51.17l-.573.947a4.023,4.023,0,0,0,2.421.725c1.614,0,2.55-.759,2.55-1.823,0-.983-.738-1.5-1.954-1.673l-.573-.083c-.526-.07-.947-.174-.947-.549,0-.409.4-.656,1.064-.656a3.62,3.62,0,0,1,1.743.481Zm32.584-.585a1.651,1.651,0,0,0-1.473.819v-.679h-1.2V52.7H56.4V49.568c0-.924.4-1.439,1.194-1.439a2.041,2.041,0,0,1,.761.14l.373-1.145a2.636,2.636,0,0,0-.866-.153M42.173,49.9a2.823,2.823,0,0,0,2.706,2.937h0a2.523,2.523,0,0,0,.275,0,2.914,2.914,0,0,0,2.012-.667l-.584-.982a2.448,2.448,0,0,1-1.462.5,1.793,1.793,0,0,1,0-3.579,2.468,2.468,0,0,1,1.462.5l.584-.982a2.927,2.927,0,0,0-2.012-.667,2.824,2.824,0,0,0-2.979,2.66h0a2.118,2.118,0,0,0,0,.276m11.392,0V47.1h-1.22v.679a2.123,2.123,0,0,0-1.765-.819,2.939,2.939,0,0,0,0,5.871,2.117,2.117,0,0,0,1.765-.818V52.7h1.217Zm-4.527,0a1.721,1.721,0,1,1,0,.136h0V49.9M34.36,46.971a2.938,2.938,0,0,0,.083,5.871,3.4,3.4,0,0,0,2.292-.784l-.6-.9a2.662,2.662,0,0,1-1.627.584,1.551,1.551,0,0,1-1.672-1.368h4.152c.012-.153.023-.3.023-.468A2.68,2.68,0,0,0,34.6,46.983c-.08-.008-.161-.012-.242-.012m-.023,1.087a1.39,1.39,0,0,1,1.415,1.357h-2.9a1.44,1.44,0,0,1,1.485-1.357M64.851,49.9V44.866H63.635V47.79a2.123,2.123,0,0,0-1.765-.819,2.939,2.939,0,0,0,0,5.871,2.117,2.117,0,0,0,1.765-.818V52.7h1.216Zm-4.526,0a1.672,1.672,0,1,1,0,.134V49.9m-41.076,0V47.1H18.034v.679a2.127,2.127,0,0,0-1.767-.819,2.939,2.939,0,0,0,0,5.871,2.12,2.12,0,0,0,1.767-.818V52.7h1.215Zm-4.525,0a1.721,1.721,0,1,1,0,.136V49.9m52.155,1.985a.577.577,0,0,1,.221.044.562.562,0,0,1,.344.517.548.548,0,0,1-.044.215.562.562,0,0,1-.3.3.542.542,0,0,1-.221.044.573.573,0,0,1-.4-.163.549.549,0,0,1-.165-.392.561.561,0,0,1,.044-.217.58.58,0,0,1,.121-.177.541.541,0,0,1,.18-.118.556.556,0,0,1,.224-.044m0,.989a.39.39,0,0,0,.168-.035.4.4,0,0,0,.136-.092.434.434,0,0,0,0-.613.5.5,0,0,0-.136-.092.438.438,0,0,0-.168-.033.453.453,0,0,0-.171.033.434.434,0,0,0-.23.568.44.44,0,0,0,.092.137.431.431,0,0,0,.309.126m.033-.692a.247.247,0,0,1,.154.043.156.156,0,0,1,.053.121.143.143,0,0,1-.043.107.2.2,0,0,1-.122.05l.169.194h-.132l-.157-.193h-.05V52.7h-.11v-.515Zm-.128.1v.138h.126a.124.124,0,0,0,.07-.017.06.06,0,0,0,.026-.053.059.059,0,0,0-.026-.051.132.132,0,0,0-.07-.017Z"/>
    <rect class="cls-2" x="24.856" y="4.506" width="18.423" height="33.107"/>
    <path class="cls-3" d="M26.027,21.06A21.021,21.021,0,0,1,34.069,4.5a21.056,21.056,0,1,0,0,33.107,21.016,21.016,0,0,1-8.042-16.553"/>
    <path class="cls-4" d="M68.135,21.058A21.054,21.054,0,0,1,34.07,37.612a21.06,21.06,0,0,0,0-33.107A21.055,21.055,0,0,1,68.135,21.058M66.127,34.1v-.678H66.4v-.137h-.7v.137h.274V34.1Zm1.351,0v-.817h-.214l-.245.562-.245-.562h-.213V34.1h.149v-.617l.23.532h.16l.23-.533V34.1Z"/>
  </g>
</svg>
