<?xml version="1.0" encoding="utf-8"?>
<!-- Generator: Adobe Illustrator 23.0.2, SVG Export Plug-In . SVG Version: 6.00 Build 0)  -->
<svg version="1.1" id="Layer_1" xmlns="http://www.w3.org/2000/svg" xmlns:xlink="http://www.w3.org/1999/xlink" x="0px" y="0px"
	 viewBox="0 0 101.7 60" style="enable-background:new 0 0 101.7 60;" xml:space="preserve">
<style type="text/css">
	.st0{fill-rule:evenodd;clip-rule:evenodd;fill:#D2E288;}
	.st1{fill-rule:evenodd;clip-rule:evenodd;fill:#8DC63F;}
	.st2{fill-rule:evenodd;clip-rule:evenodd;fill:#82221C;stroke:#CD8C5D;stroke-width:4.322518e-02;stroke-miterlimit:2.613;}
	.st3{fill-rule:evenodd;clip-rule:evenodd;fill:#EC2127;stroke:#CD8C5D;stroke-width:4.322518e-02;stroke-miterlimit:2.613;}
</style>
<g>
	<path class="st0" d="M39.6,59H26.1c-2,0-3.6-1.6-3.6-3.6V16c0-2,1.6-3.6,3.6-3.6h13.5c0.2,0,0.3,0,0.5,0V9.6C40,8.7,40.7,8,41.6,8
		l0,0c0.9,0,1.6,0.7,1.6,1.6v4.9c0,0.2,0,0.4-0.1,0.6c0.1,0.3,0.1,0.6,0.1,0.9v39.4C43.1,57.4,41.5,59,39.6,59L39.6,59z M28.9,17.6
		h7.8c2.5,0,4.5,2,4.5,4.5v13c0,2.5-2,4.5-4.5,4.5h-7.8c-2.5,0-4.5-2-4.5-4.5v-13C24.4,19.6,26.4,17.6,28.9,17.6L28.9,17.6z"/>
	<path class="st1" d="M46.3,18.4l8.6,0c3.1,0.4,4.6,2.7,4.4,6.1c-0.2,3.4-2.2,5.1-5.4,5.4l-3.1-0.1l0.1,9.4h-4.6V18.4z M50.9,20.6
		c2.1-0.3,3.7,0.3,3.9,3.6c-0.1,3-1.7,3.7-3.9,3.6V20.6z M67.3,18.2c-3.3,0.1-5.2,1.5-5.2,4.2l0.1,13.5c0.7,3.1,2.4,4.1,4.4,4.1
		l5.8,0.1l1,0l0-2.2l-0.9,0l-3,0c-1.6-0.1-2.5-1-2.8-2.8l0-6.9l5.6,0.1l0-2.9l-5.7,0.1c0.1-1.9-0.4-4.5,2-5l4.3,0l0-2.3L67.3,18.2
		L67.3,18.2z M74.7,24.1c0.4,3.5,4.1,6,7.3,8.7c1.5,2.4,0.9,4.2-1.2,4.6c-1.4,0.1-2-0.9-2.2-2.4l-4.3,0.1c0.5,3.5,2.3,5.4,5.3,5.3
		l3-0.1c4.8-1.3,5.4-8.2,2.2-10.7c-1.8-1.6-7.9-5.7-5.9-8.1c1.4-0.9,2.9-0.2,3.1,1.7l4.2,0c-0.4-3.8-2.7-5.3-6.3-5.1
		C76.9,18.5,74.4,19.6,74.7,24.1L74.7,24.1z M0,17.5v21.8h4.6V19.7c1.5-0.1,2.7,0.2,3,1.7v17.9h4.6V19.7c1.5-0.1,2.7,0.2,3,1.7v17.9
		h4.5l-0.2-18.8c-1.4-3.3-4.3-3.5-8.1-1.7c-2.1-1.9-4.2-1.1-6.9,0.1l0-1.4L0,17.5z M88.7,39.9h4.6V28.3h3.9v11.5h4.5V23.4
		c-0.1-3.3-2.7-5.4-6.3-5.5c-4.2,0-6.5,1.9-6.7,5.3L88.7,39.9L88.7,39.9z M93.4,22.2c0.2-1.2,0.6-1.7,1.9-1.9c1.4,0,1.9,0.8,2,2v3.3
		h-3.9V22.2L93.4,22.2z"/>
	<path class="st2" d="M28,26.4c0.8,1.8,1.8,2.6,3.1,2.7c-2,1.5-4.1,2.4-6.4,3c-1.4-0.1-2.8-0.4-4.1-0.8C24,30.6,26.4,29,28,26.4
		L28,26.4z"/>
	<path class="st3" d="M36.7,21.7l9.3,4.7c-4.7,6.2-12.7,6.4-21.3,5.6C30.4,30.6,34.4,27.1,36.7,21.7L36.7,21.7z"/>
</g>
</svg>
