<svg id="Layer_1" data-name="Layer 1" xmlns="http://www.w3.org/2000/svg" xmlns:xlink="http://www.w3.org/1999/xlink" viewBox="0 0 90.631 59.999">
  <defs>
    <style>
      .cls-1 {
        fill: #fff;
      }

      .cls-1, .cls-3 {
        fill-rule: evenodd;
      }

      .cls-2 {
        mask: url(#mask);
      }

      .cls-3 {
        fill: url(#linear-gradient);
      }
    </style>
    <mask id="mask" x="0" y="12.625" width="90.631" height="29.594" maskUnits="userSpaceOnUse">
      <g id="mask-2">
        <path id="path-1" class="cls-1" d="M59.132,12.625c-7.178.039-12.221,3.919-12.262,9.46-.048,4.123,3.636,6.421,6.412,7.791,2.852,1.4,3.809,2.3,3.8,3.557-.021,1.921-2.276,2.767-4.383,2.8a15.168,15.168,0,0,1-7.522-1.808L43.849,40.7a21.984,21.984,0,0,0,8.144,1.521c7.694,0,12.725-3.842,12.75-9.794.032-7.554-10.331-7.971-10.26-11.346.023-1.026.989-2.117,3.106-2.4a13.69,13.69,0,0,1,7.22,1.281l1.287-6.07a19.5,19.5,0,0,0-6.747-1.268Zm19.337.523a3.33,3.33,0,0,0-3.117,2.1L64.362,41.771h7.689l1.528-4.277h9.394l.886,4.277h6.772L84.719,13.148Zm1.073,7.734L81.76,31.629H75.686ZM37.553,13.148,31.5,41.771h7.324l6.056-28.623Zm-10.835,0L19.1,32.629,16.012,16.066a3.424,3.424,0,0,0-3.378-2.918H.173L0,13.978a30.42,30.42,0,0,1,7.225,2.436,3.132,3.132,0,0,1,1.74,2.514L14.8,41.771h7.741L34.41,13.148Z"/>
      </g>
    </mask>
    <linearGradient id="linear-gradient" x1="-285.264" y1="411.073" x2="-283.414" y2="411.073" gradientTransform="matrix(49, 0, 0, -16, 13977.94, 6604.529)" gradientUnits="userSpaceOnUse">
      <stop offset="0" stop-color="#241f5d"/>
      <stop offset="1" stop-color="#034ea1"/>
    </linearGradient>
  </defs>
  <title>visa-logo</title>
  <g id="Page-1">
    <g class="cls-2">
      <polygon class="cls-3" points="0 42.219 90.631 42.219 90.631 12.625 0 12.625 0 42.219"/>
    </g>
  </g>
</svg>
